# xmcd
#
# Track frame offsets: 
#        150
#        17550
#        33752
#        53030
#        67247
#        80810
#        92997
#        107902
#        126375
#        138320
#        154570
#        169525
#        186725
#        202027
#
# Disc length: 2874 seconds
#
# Revision: 1
# Processed by: cddbd v1.5.2PL0 Copyright (c) Steve Scherf et al.
# Submitted via: ExactAudioCopy v0.99pb5
#
DISCID=c90b380e
DTITLE=Various Artist - Mitten ins Herz - Die schönsten Country Balladen - CD
DTITLE=1
DYEAR=1994
DGENRE=Country
TTITLE0=Bellamy Brothers - I love you (more and more)
TTITLE1=Linda Feller - Mitten ins Herz
TTITLE2=Kris Kristofferson - Me and Bobby McGee
TTITLE3=Joan Kennedy - You said it
TTITLE4=Western Union - Unser Lied im Radio
TTITLE5=Restless Heart - You can depend on me
TTITLE6=Lucille Starr - Hey Mister Wind
TTITLE7=Don Williams - I believe in you
TTITLE8=Amanda Paige - Waiting in the wings
TTITLE9=Greyhounds - Honeymoon Hotel
TTITLE10=Dagmar Lay D. - Ich lieb dich noch in hundert Jahren
TTITLE11=Bobby Bare - Sylvia's Mother
TTITLE12=Frank Baum and Country Green  - Wie eine Feder im Wind
TTITLE13=Larry Mercey - You always come through for me
EXTD=
EXTT0=
EXTT1=
EXTT2=
EXTT3=
EXTT4=
EXTT5=
EXTT6=
EXTT7=
EXTT8=
EXTT9=
EXTT10=
EXTT11=
EXTT12=
EXTT13=
PLAYORDER=
